<svg xmlns="http://www.w3.org/2000/svg" viewBox="0 0 512 512" role="img" aria-label="MdWork Desktop">
  <defs>
    <linearGradient id="zincSignal" x1="104" y1="104" x2="408" y2="408" gradientUnits="userSpaceOnUse">
      <stop offset="0" stop-color="#f4f7f8"/>
      <stop offset="0.52" stop-color="#8fa0aa"/>
      <stop offset="1" stop-color="#2e3b42"/>
    </linearGradient>
    <linearGradient id="paperSignal" x1="188" y1="116" x2="344" y2="398" gradientUnits="userSpaceOnUse">
      <stop offset="0" stop-color="#ffffff"/>
      <stop offset="1" stop-color="#dbe3e7"/>
    </linearGradient>
    <filter id="softLift" x="-20%" y="-20%" width="140%" height="140%" color-interpolation-filters="sRGB">
      <feDropShadow dx="0" dy="14" stdDeviation="16" flood-color="#0a0f12" flood-opacity="0.22"/>
    </filter>
  </defs>
  <g fill="none" stroke-linecap="round" stroke-linejoin="round" filter="url(#softLift)">
    <path d="M138 145 256 78l118 67v154l-118 67-118-67Z" fill="#11181d" opacity="0.95"/>
    <path d="M138 145 256 78l118 67v154l-118 67-118-67Z" stroke="url(#zincSignal)" stroke-width="18"/>
    <path d="M183 178h146l34 34v138H183Z" fill="url(#paperSignal)" stroke="#f8fbfc" stroke-width="10"/>
    <path d="M329 178v39h39" stroke="#9aa8ae" stroke-width="10"/>
    <path d="M218 270v-43l38 39 38-39v43" stroke="#121a1f" stroke-width="18"/>
    <path d="M220 314h74" stroke="#4c5b62" stroke-width="14"/>
    <path d="M220 346h108" stroke="#4c5b62" stroke-width="14"/>
    <path d="M335 264h36" stroke="#ff5a1f" stroke-width="14"/>
    <path d="M353 246v36" stroke="#ff5a1f" stroke-width="14"/>
  </g>
</svg>
